HIERARCHY
ROOT hip
{
	OFFSET 0.000000 0.000000 0.000000 
	CHANNELS 6 Xposition Yposition Zposition Xrotation Zrotation Yrotation
	JOINT abdomen
	{
		OFFSET 0.000000 3.402643 0.000000 
		CHANNELS 3 Xrotation Zrotation Yrotation
		JOINT chest
		{
			OFFSET 0.000000 8.438565 -0.680529 
			CHANNELS 3 Xrotation Zrotation Yrotation
			JOINT neck
			{
				OFFSET 0.000000 10.207942 -0.272212 
				CHANNELS 3 Xrotation Zrotation Yrotation
				JOINT head
				{
					OFFSET 0.000000 3.130431 0.000000 
					CHANNELS 3 Xrotation Zrotation Yrotation
					End Site
					{
						OFFSET 0.000000 3.130435 0.000000 
					}
				}
			}
			JOINT lCollar
			{
				OFFSET 3.470700 6.669187 -0.816635 
				CHANNELS 3 Yrotation Zrotation Xrotation
				JOINT lShldr
				{
					OFFSET 3.198488 0.000000 0.000000 
					CHANNELS 3 Zrotation Yrotation Xrotation
					JOINT lForeArm
					{
						OFFSET 10.139888 0.000000 0.000000 
						CHANNELS 3 Yrotation Zrotation Xrotation
						JOINT lHand
						{
							OFFSET 8.370511 0.000000 0.000000 
							CHANNELS 3 Zrotation Yrotation Xrotation
							End Site
							{
								OFFSET 4.083176 0.000000 0.000000 
							}
						}
					}
				}
			}
			JOINT rCollar
			{
				OFFSET -3.470700 6.669187 -0.816635 
				CHANNELS 3 Yrotation Zrotation Xrotation
				JOINT rShldr
				{
					OFFSET -3.198488 0.000000 0.000000 
					CHANNELS 3 Zrotation Yrotation Xrotation
					JOINT rForeArm
					{
						OFFSET -10.139888 0.000000 0.000000 
						CHANNELS 3 Yrotation Zrotation Xrotation
						JOINT rHand
						{
							OFFSET -8.370511 0.000000 0.000000 
							CHANNELS 3 Zrotation Yrotation Xrotation
							End Site
							{
								OFFSET -4.083176 0.000000 0.000000 
							}
						}
					}
				}
			}
		}
	}
	JOINT lThigh
	{
		OFFSET 5.308129 -1.633274 1.361059 
		CHANNELS 3 Xrotation Zrotation Yrotation
		JOINT lShin
		{
			OFFSET -2.041588 -20.007561 0.000000 
			CHANNELS 3 Xrotation Zrotation Yrotation
			JOINT lFoot
			{
				OFFSET 0.000000 -19.190928 -1.224953 
				CHANNELS 3 Xrotation Yrotation Zrotation
				End Site
				{
					OFFSET 0.000000 -2.449906 4.627600 
				}
			}
		}
	}
	JOINT rThigh
	{
		OFFSET -5.308129 -1.633274 1.361059 
		CHANNELS 3 Xrotation Zrotation Yrotation
		JOINT rShin
		{
			OFFSET 2.041588 -20.007561 0.000000 
			CHANNELS 3 Xrotation Zrotation Yrotation
			JOINT rFoot
			{
				OFFSET 0.000000 -19.190928 -1.224953 
				CHANNELS 3 Xrotation Yrotation Zrotation
				End Site
				{
					OFFSET 0.000000 -2.449906 4.627600 
				}
			}
		}
	}
}
MOTION
Frames: 11
Frame Time: 0.033333
0.004304 43.462135 3.205796 9.824219 -0.175781 -0.537139 16.132813 -1.220703 -0.224817 -20.371094 -2.314453 4.716797 50.927731 8.916017 4.326171 -51.074219 -6.162109 -0.362376 9.003906 24.570313 -0.248201 -84.970703 36.972652 -10.414049 -15.664063 -12.226563 -1.062385 -2.900391 33.857422 -0.517619 -3.173828 -25.185549 -1.240234 80.029297 7.568360 15.128241 32.607422 29.082033 6.079239 8.085938 -12.832032 1.892363 -42.892941 4.686711 1.639157 7.369667 -6.396138 -2.884798 7.878220 -1.883260 2.138031 13.554142 -8.037087 -4.450606 28.830708 7.926522 4.549215 -4.897761 -0.278519 -1.064349 
0.007875 43.293438 3.293243 9.824219 -0.361328 -0.361390 16.308594 -0.878906 -0.097656 -20.371094 -2.314453 4.716797 51.123047 9.013672 4.464420 -50.703125 -6.005859 -0.049850 9.101563 24.560547 -0.404450 -85.097656 36.992188 -10.228498 -16.904297 -12.578125 -1.794748 -2.802735 33.691406 -0.253906 -3.085938 -25.039063 -1.005859 80.029297 7.392578 15.147740 32.607422 29.082033 6.421037 7.822267 -13.359375 1.726259 -42.196644 4.677276 1.628728 7.116903 -6.414216 -3.056643 7.167550 -1.898218 2.300284 14.243744 -7.869397 -3.892539 28.412851 8.171157 4.209679 -3.404822 -1.304674 -0.550175 
0.012598 43.179657 3.373438 9.824219 -0.361328 -0.361390 16.318359 -0.546875 0.009672 -20.371094 -2.148437 4.726562 51.123047 9.013672 4.464420 -50.361324 -6.035156 0.428661 9.101563 24.560547 -0.404450 -85.175781 36.826176 -10.414067 -17.265625 -12.568359 -1.816406 -2.958985 32.988281 -0.224609 -3.085938 -25.039063 -1.005859 80.078125 7.451173 15.831346 32.597656 28.369139 6.250000 7.812500 -13.515624 1.367188 -41.843479 4.677203 1.616668 7.811722 -6.425549 -3.122144 5.472055 -1.296760 2.317099 15.238177 -7.927300 -4.440612 28.634680 7.916748 4.699502 -2.233911 -1.577880 -0.644312 
0.018671 43.127956 3.450293 9.833984 -0.537109 -0.195313 16.484373 -0.380859 0.068359 -20.371094 -2.148437 4.541015 51.113281 9.150390 4.355469 -49.990234 -5.888671 0.916967 9.267577 24.560547 -0.400390 -85.185547 36.474613 -10.218802 -17.968748 -12.753907 -1.833782 -3.134765 32.441406 -0.619760 -3.085938 -25.039063 -1.005859 80.000000 7.294923 16.171877 32.597656 28.017576 5.722657 7.294922 -14.052734 1.716381 -41.677406 4.677505 1.601351 8.806322 -6.573089 -3.380011 3.893588 -1.050985 2.395065 16.150673 -7.694672 -4.032793 28.397158 8.172221 4.372494 -0.667009 -2.573391 0.147685 
0.025734 43.121811 3.524429 9.833984 -0.722656 -0.195312 16.484375 -0.048828 0.195313 -20.185547 -1.972656 4.355133 51.083984 9.052734 4.220286 -49.628910 -5.751953 1.416016 9.267577 24.560547 -0.400390 -85.263672 35.947269 -10.316531 -18.847656 -12.734375 -2.224410 -3.193360 31.738281 -0.439453 -2.988281 -24.882813 -0.747844 79.941406 6.962891 16.358608 32.578125 27.675783 5.371095 7.021484 -14.570312 1.511217 -41.639145 5.058047 1.481825 10.656419 -7.007686 -3.238604 1.623099 -1.012084 2.572697 17.084873 -7.361559 -4.286402 28.312988 7.760571 4.801618 3.557374 -3.599879 0.805084 
0.033365 43.140850 3.595117 9.833984 -0.722656 -0.009766 16.484375 0.107422 0.244141 -20.185547 -1.972656 4.179351 51.083984 9.052734 4.220286 -49.267574 -5.595703 1.883814 9.267577 24.560547 -0.400390 -85.097656 35.400391 -9.974811 -19.736326 -12.910156 -2.253678 -3.457031 31.015623 -0.981296 -3.164063 -24.882813 -0.742187 80.107422 6.777344 16.387875 32.744141 27.324219 5.366611 7.099610 -15.273438 1.335318 -40.792740 4.861936 1.169158 10.897621 -6.933439 -2.915400 0.548893 -0.555182 2.743016 17.921724 -7.184755 -4.092833 26.863131 7.766976 4.457613 6.973766 -4.866527 1.589541 
0.041139 43.166107 3.661569 9.824219 -0.878906 -0.000150 16.669922 0.429688 0.371167 -20.195313 -1.787109 4.003602 51.083984 8.798827 4.190947 -49.082031 -5.615235 2.215841 9.453125 24.560547 -0.404450 -85.009766 34.853512 -9.965120 -20.625000 -13.261719 -2.634479 -3.359375 30.507814 -0.820313 -3.066406 -24.902348 -0.585937 80.029297 6.259766 16.602627 32.744141 27.324219 5.190830 6.572266 -15.800782 0.964138 -40.913734 5.223906 1.409327 13.197345 -7.263113 -3.340491 -0.514321 -0.312181 3.238404 17.968264 -7.031354 -3.688441 28.359385 7.663375 4.086096 7.263829 -5.240016 2.055703 
0.048635 43.203796 3.722543 10.019531 -1.064453 -0.019713 16.845701 0.761719 0.488281 -20.195313 -1.787109 3.837586 51.064453 8.554688 4.161608 -48.740234 -5.644532 2.528336 9.531250 24.531248 -0.615235 -84.658203 34.462891 -9.642911 -22.050783 -13.945313 -2.871094 -3.271484 29.785158 -1.342804 -2.988281 -24.931643 -0.357212 80.019531 5.908203 16.446318 32.744141 26.621094 5.532734 6.757813 -16.484375 0.583168 -41.060017 5.575197 1.315689 15.661577 -7.851153 -3.865367 -0.450629 0.200628 3.601846 16.958237 -7.195621 -4.091628 31.403954 7.732521 5.138798 4.492138 -6.371593 1.764455 
0.055427 43.267700 3.777867 10.009766 -1.240234 0.000000 16.845703 0.937500 0.547035 -20.195314 -1.611328 3.662110 51.064453 8.310547 4.142035 -48.544922 -5.644531 2.674821 9.531250 24.531248 -0.615235 -84.570313 33.583984 -9.555143 -23.125000 -14.111329 -3.085938 -3.535156 29.062500 -1.958147 -2.988281 -24.931643 -0.357212 79.990234 5.361329 16.309507 32.724609 26.445311 5.718310 6.386719 -17.001953 0.214844 -40.821766 5.916511 1.205678 18.207409 -8.240825 -4.350488 0.396454 1.006801 4.101060 15.692654 -7.383000 -3.432479 35.173820 8.013785 5.483762 3.592634 -6.989661 2.778063 
0.061094 43.368797 3.827650 10.195313 -1.240234 -0.019531 17.011719 1.210938 0.820313 -20.195314 -1.611328 3.476563 51.064453 8.066406 4.112698 -48.378902 -5.673828 3.006847 9.521484 24.355471 -0.595703 -84.189453 33.017582 -8.949756 -24.365232 -14.619141 -3.474097 -3.613281 28.330080 -2.475833 -3.066406 -24.775393 -0.195312 79.960938 4.814454 16.152346 32.724609 26.093748 6.064452 6.298828 -17.695313 -0.332031 -40.431580 6.257995 1.104339 19.950384 -8.736894 -4.447326 1.647929 1.435787 4.436406 14.198092 -7.587958 -3.480248 38.434776 7.808372 6.159354 3.610510 -7.891872 3.388107 
0.064960 43.518692 3.871818 10.195313 -1.425781 -0.000243 17.011719 1.367188 0.888672 -20.195313 -1.445313 3.134520 51.064453 7.666016 4.200521 -48.203125 -5.683593 3.163096 9.521484 24.355471 -0.595703 -84.306641 32.314453 -9.052734 -25.624998 -14.951171 -3.513106 -3.867188 27.587893 -3.007813 -3.066406 -24.775393 -0.195312 79.951172 4.101562 15.869141 32.548828 25.742189 6.421541 6.386719 -18.212893 -0.927734 -39.527615 6.454132 0.876849 20.425400 -8.915172 -4.376461 2.400507 2.088156 4.254168 12.488869 -7.694913 -3.316836 41.308140 7.849980 6.319083 3.385488 -8.198289 3.320663 
